<mxfile host="app.diagrams.net" modified="2024-01-31T13:14:58.301Z" agent="Mozilla/5.0 (X11; Linux x86_64; rv:121.0) Gecko/20100101 Firefox/121.0" etag="z6ROVAgCwrdVrhs2U7IJ" version="23.0.2" type="device">
  <diagram name="Page-1" id="RStafpvfRsPW1U831khx">
    <mxGraphModel dx="326" dy="191" grid="1" gridSize="10" guides="1" tooltips="1" connect="1" arrows="1" fold="1" page="1" pageScale="1" pageWidth="850" pageHeight="1100" math="0" shadow="0">
      <root>
        <mxCell id="0" />
        <mxCell id="1" parent="0" />
        <mxCell id="Dr5G_LL7fjHQrt6cBpDd-1" value="STUDENT" style="rounded=0;whiteSpace=wrap;html=1;" parent="1" vertex="1">
          <mxGeometry x="430" y="335" width="80" height="30" as="geometry" />
        </mxCell>
        <mxCell id="Dr5G_LL7fjHQrt6cBpDd-3" value="&lt;u&gt;National_ID&lt;/u&gt;" style="ellipse;whiteSpace=wrap;html=1;" parent="1" vertex="1">
          <mxGeometry x="370" y="275" width="75" height="40" as="geometry" />
        </mxCell>
        <mxCell id="Dr5G_LL7fjHQrt6cBpDd-4" value="&lt;div&gt;name&lt;/div&gt;" style="ellipse;whiteSpace=wrap;html=1;" parent="1" vertex="1">
          <mxGeometry x="520" y="285" width="55" height="30" as="geometry" />
        </mxCell>
        <mxCell id="Dr5G_LL7fjHQrt6cBpDd-5" value="date_of_birth" style="ellipse;whiteSpace=wrap;html=1;" parent="1" vertex="1">
          <mxGeometry x="440" y="245" width="80" height="30" as="geometry" />
        </mxCell>
        <mxCell id="Dr5G_LL7fjHQrt6cBpDd-6" value="" style="endArrow=none;html=1;rounded=0;entryX=1;entryY=1;entryDx=0;entryDy=0;" parent="1" target="Dr5G_LL7fjHQrt6cBpDd-3" edge="1">
          <mxGeometry width="50" height="50" relative="1" as="geometry">
            <mxPoint x="470" y="335" as="sourcePoint" />
            <mxPoint x="510" y="285" as="targetPoint" />
          </mxGeometry>
        </mxCell>
        <mxCell id="Dr5G_LL7fjHQrt6cBpDd-7" value="" style="endArrow=none;html=1;rounded=0;entryX=0.447;entryY=1.032;entryDx=0;entryDy=0;entryPerimeter=0;exitX=0.5;exitY=0;exitDx=0;exitDy=0;" parent="1" source="Dr5G_LL7fjHQrt6cBpDd-1" target="Dr5G_LL7fjHQrt6cBpDd-5" edge="1">
          <mxGeometry width="50" height="50" relative="1" as="geometry">
            <mxPoint x="470" y="345" as="sourcePoint" />
            <mxPoint x="444" y="319" as="targetPoint" />
          </mxGeometry>
        </mxCell>
        <mxCell id="Dr5G_LL7fjHQrt6cBpDd-8" value="" style="endArrow=none;html=1;rounded=0;entryX=0.092;entryY=0.847;entryDx=0;entryDy=0;entryPerimeter=0;" parent="1" target="Dr5G_LL7fjHQrt6cBpDd-4" edge="1">
          <mxGeometry width="50" height="50" relative="1" as="geometry">
            <mxPoint x="470" y="335" as="sourcePoint" />
            <mxPoint x="486" y="286" as="targetPoint" />
          </mxGeometry>
        </mxCell>
        <mxCell id="Dr5G_LL7fjHQrt6cBpDd-9" value="EMPLOYEE" style="rounded=0;whiteSpace=wrap;html=1;" parent="1" vertex="1">
          <mxGeometry x="127.5" y="380" width="80" height="30" as="geometry" />
        </mxCell>
        <mxCell id="Dr5G_LL7fjHQrt6cBpDd-10" value="&lt;u&gt;National_ID&lt;/u&gt;" style="ellipse;whiteSpace=wrap;html=1;" parent="1" vertex="1">
          <mxGeometry x="52.5" y="320" width="75" height="40" as="geometry" />
        </mxCell>
        <mxCell id="Dr5G_LL7fjHQrt6cBpDd-11" value="&lt;div&gt;name&lt;/div&gt;" style="ellipse;whiteSpace=wrap;html=1;" parent="1" vertex="1">
          <mxGeometry x="217.5" y="330" width="55" height="30" as="geometry" />
        </mxCell>
        <mxCell id="Dr5G_LL7fjHQrt6cBpDd-12" value="date_of_birth" style="ellipse;whiteSpace=wrap;html=1;" parent="1" vertex="1">
          <mxGeometry x="131.5" y="290" width="80" height="30" as="geometry" />
        </mxCell>
        <mxCell id="Dr5G_LL7fjHQrt6cBpDd-13" value="" style="endArrow=none;html=1;rounded=0;entryX=1;entryY=1;entryDx=0;entryDy=0;" parent="1" target="Dr5G_LL7fjHQrt6cBpDd-10" edge="1">
          <mxGeometry width="50" height="50" relative="1" as="geometry">
            <mxPoint x="167.5" y="380" as="sourcePoint" />
            <mxPoint x="207.5" y="330" as="targetPoint" />
          </mxGeometry>
        </mxCell>
        <mxCell id="Dr5G_LL7fjHQrt6cBpDd-14" value="" style="endArrow=none;html=1;rounded=0;entryX=0.447;entryY=1.032;entryDx=0;entryDy=0;entryPerimeter=0;exitX=0.5;exitY=0;exitDx=0;exitDy=0;" parent="1" source="Dr5G_LL7fjHQrt6cBpDd-9" target="Dr5G_LL7fjHQrt6cBpDd-12" edge="1">
          <mxGeometry width="50" height="50" relative="1" as="geometry">
            <mxPoint x="167.5" y="390" as="sourcePoint" />
            <mxPoint x="141.5" y="364" as="targetPoint" />
          </mxGeometry>
        </mxCell>
        <mxCell id="Dr5G_LL7fjHQrt6cBpDd-15" value="" style="endArrow=none;html=1;rounded=0;entryX=0.092;entryY=0.847;entryDx=0;entryDy=0;entryPerimeter=0;" parent="1" target="Dr5G_LL7fjHQrt6cBpDd-11" edge="1">
          <mxGeometry width="50" height="50" relative="1" as="geometry">
            <mxPoint x="167.5" y="380" as="sourcePoint" />
            <mxPoint x="183.5" y="331" as="targetPoint" />
          </mxGeometry>
        </mxCell>
        <mxCell id="Dr5G_LL7fjHQrt6cBpDd-16" value="background" style="ellipse;whiteSpace=wrap;html=1;" parent="1" vertex="1">
          <mxGeometry x="35" y="410" width="75" height="40" as="geometry" />
        </mxCell>
        <mxCell id="Dr5G_LL7fjHQrt6cBpDd-17" value="" style="endArrow=none;html=1;rounded=0;entryX=-0.002;entryY=0.549;entryDx=0;entryDy=0;entryPerimeter=0;exitX=1;exitY=0.5;exitDx=0;exitDy=0;" parent="1" source="Dr5G_LL7fjHQrt6cBpDd-16" target="Dr5G_LL7fjHQrt6cBpDd-9" edge="1">
          <mxGeometry width="50" height="50" relative="1" as="geometry">
            <mxPoint x="100" y="470" as="sourcePoint" />
            <mxPoint x="150" y="420" as="targetPoint" />
          </mxGeometry>
        </mxCell>
        <mxCell id="Dr5G_LL7fjHQrt6cBpDd-19" value="COMPANY_DEPARTMENT" style="rounded=0;whiteSpace=wrap;html=1;" parent="1" vertex="1">
          <mxGeometry x="82.5" y="550" width="170" height="30" as="geometry" />
        </mxCell>
        <mxCell id="Dr5G_LL7fjHQrt6cBpDd-21" value="WORKS_FOR" style="rhombus;whiteSpace=wrap;html=1;" parent="1" vertex="1">
          <mxGeometry x="110" y="450" width="115" height="70" as="geometry" />
        </mxCell>
        <mxCell id="Dr5G_LL7fjHQrt6cBpDd-22" value="" style="endArrow=none;html=1;rounded=0;exitX=0.5;exitY=0;exitDx=0;exitDy=0;entryX=0.5;entryY=1;entryDx=0;entryDy=0;" parent="1" source="Dr5G_LL7fjHQrt6cBpDd-21" target="Dr5G_LL7fjHQrt6cBpDd-9" edge="1">
          <mxGeometry width="50" height="50" relative="1" as="geometry">
            <mxPoint x="300" y="390" as="sourcePoint" />
            <mxPoint x="350" y="340" as="targetPoint" />
          </mxGeometry>
        </mxCell>
        <mxCell id="Dr5G_LL7fjHQrt6cBpDd-25" value="N" style="edgeLabel;html=1;align=center;verticalAlign=middle;resizable=0;points=[];" parent="Dr5G_LL7fjHQrt6cBpDd-22" vertex="1" connectable="0">
          <mxGeometry x="0.2929" y="-1" relative="1" as="geometry">
            <mxPoint x="-4" y="16" as="offset" />
          </mxGeometry>
        </mxCell>
        <mxCell id="Dr5G_LL7fjHQrt6cBpDd-26" value="" style="shape=link;html=1;rounded=0;entryX=0.5;entryY=0;entryDx=0;entryDy=0;exitX=0.5;exitY=1;exitDx=0;exitDy=0;" parent="1" source="Dr5G_LL7fjHQrt6cBpDd-21" target="Dr5G_LL7fjHQrt6cBpDd-19" edge="1">
          <mxGeometry width="100" relative="1" as="geometry">
            <mxPoint x="112.5" y="520" as="sourcePoint" />
            <mxPoint x="110" y="560" as="targetPoint" />
          </mxGeometry>
        </mxCell>
        <mxCell id="Dr5G_LL7fjHQrt6cBpDd-27" value="1" style="edgeLabel;html=1;align=center;verticalAlign=middle;resizable=0;points=[];" parent="Dr5G_LL7fjHQrt6cBpDd-26" vertex="1" connectable="0">
          <mxGeometry x="-0.4595" relative="1" as="geometry">
            <mxPoint x="7" y="-1" as="offset" />
          </mxGeometry>
        </mxCell>
        <mxCell id="Dr5G_LL7fjHQrt6cBpDd-30" value="performance" style="ellipse;whiteSpace=wrap;html=1;" parent="1" vertex="1">
          <mxGeometry x="60" y="260" width="80" height="30" as="geometry" />
        </mxCell>
        <mxCell id="Dr5G_LL7fjHQrt6cBpDd-31" value="seniority_level" style="ellipse;whiteSpace=wrap;html=1;" parent="1" vertex="1">
          <mxGeometry x="220" y="260" width="90" height="30" as="geometry" />
        </mxCell>
        <mxCell id="Dr5G_LL7fjHQrt6cBpDd-32" value="" style="endArrow=none;html=1;rounded=0;exitX=0.5;exitY=0;exitDx=0;exitDy=0;entryX=0.555;entryY=0.963;entryDx=0;entryDy=0;entryPerimeter=0;" parent="1" source="Dr5G_LL7fjHQrt6cBpDd-9" target="Dr5G_LL7fjHQrt6cBpDd-30" edge="1">
          <mxGeometry width="50" height="50" relative="1" as="geometry">
            <mxPoint x="220" y="440" as="sourcePoint" />
            <mxPoint x="270" y="390" as="targetPoint" />
          </mxGeometry>
        </mxCell>
        <mxCell id="Dr5G_LL7fjHQrt6cBpDd-33" value="" style="endArrow=none;html=1;rounded=0;exitX=0.5;exitY=0;exitDx=0;exitDy=0;entryX=0.235;entryY=0.995;entryDx=0;entryDy=0;entryPerimeter=0;" parent="1" source="Dr5G_LL7fjHQrt6cBpDd-9" target="Dr5G_LL7fjHQrt6cBpDd-31" edge="1">
          <mxGeometry width="50" height="50" relative="1" as="geometry">
            <mxPoint x="218" y="405" as="sourcePoint" />
            <mxPoint x="270" y="405" as="targetPoint" />
          </mxGeometry>
        </mxCell>
        <mxCell id="Dr5G_LL7fjHQrt6cBpDd-35" value="salary" style="ellipse;whiteSpace=wrap;html=1;dashed=1;" parent="1" vertex="1">
          <mxGeometry x="137.5" y="200" width="52.5" height="30" as="geometry" />
        </mxCell>
        <mxCell id="Dr5G_LL7fjHQrt6cBpDd-36" value="" style="endArrow=none;html=1;rounded=0;exitX=0.719;exitY=0.011;exitDx=0;exitDy=0;exitPerimeter=0;entryX=0.297;entryY=0.919;entryDx=0;entryDy=0;entryPerimeter=0;" parent="1" source="Dr5G_LL7fjHQrt6cBpDd-30" target="Dr5G_LL7fjHQrt6cBpDd-35" edge="1">
          <mxGeometry width="50" height="50" relative="1" as="geometry">
            <mxPoint x="70" y="240" as="sourcePoint" />
            <mxPoint x="120" y="190" as="targetPoint" />
          </mxGeometry>
        </mxCell>
        <mxCell id="Dr5G_LL7fjHQrt6cBpDd-37" value="" style="endArrow=none;html=1;rounded=0;exitX=0.38;exitY=0.03;exitDx=0;exitDy=0;exitPerimeter=0;entryX=1;entryY=1;entryDx=0;entryDy=0;" parent="1" source="Dr5G_LL7fjHQrt6cBpDd-31" target="Dr5G_LL7fjHQrt6cBpDd-35" edge="1">
          <mxGeometry width="50" height="50" relative="1" as="geometry">
            <mxPoint x="128" y="270" as="sourcePoint" />
            <mxPoint x="163" y="238" as="targetPoint" />
          </mxGeometry>
        </mxCell>
        <mxCell id="Dr5G_LL7fjHQrt6cBpDd-38" value="IS_THESIS_ADVISER_FOR" style="rhombus;whiteSpace=wrap;html=1;" parent="1" vertex="1">
          <mxGeometry x="335" y="750" width="200" height="80" as="geometry" />
        </mxCell>
        <mxCell id="Dr5G_LL7fjHQrt6cBpDd-39" value="" style="endArrow=none;html=1;rounded=0;entryX=1;entryY=0.5;entryDx=0;entryDy=0;exitX=0;exitY=0.5;exitDx=0;exitDy=0;" parent="1" source="Dr5G_LL7fjHQrt6cBpDd-38" target="Dr5G_LL7fjHQrt6cBpDd-9" edge="1">
          <mxGeometry width="50" height="50" relative="1" as="geometry">
            <mxPoint x="270" y="660" as="sourcePoint" />
            <mxPoint x="340" y="510" as="targetPoint" />
          </mxGeometry>
        </mxCell>
        <mxCell id="Dr5G_LL7fjHQrt6cBpDd-45" value="IS_A" style="rhombus;whiteSpace=wrap;html=1;" parent="1" vertex="1">
          <mxGeometry x="435" y="416" width="70" height="40" as="geometry" />
        </mxCell>
        <mxCell id="Dr5G_LL7fjHQrt6cBpDd-46" value="" style="endArrow=none;html=1;rounded=0;exitX=0.5;exitY=1;exitDx=0;exitDy=0;entryX=0.5;entryY=0;entryDx=0;entryDy=0;" parent="1" source="Dr5G_LL7fjHQrt6cBpDd-1" target="Dr5G_LL7fjHQrt6cBpDd-45" edge="1">
          <mxGeometry width="50" height="50" relative="1" as="geometry">
            <mxPoint x="530" y="410" as="sourcePoint" />
            <mxPoint x="580" y="360" as="targetPoint" />
          </mxGeometry>
        </mxCell>
        <mxCell id="Dr5G_LL7fjHQrt6cBpDd-52" value="FRESHMAN" style="shape=ext;double=1;rounded=0;whiteSpace=wrap;html=1;" parent="1" vertex="1">
          <mxGeometry x="280" y="533" width="90" height="35" as="geometry" />
        </mxCell>
        <mxCell id="Dr5G_LL7fjHQrt6cBpDd-53" value="SOPHIMORE" style="shape=ext;double=1;rounded=0;whiteSpace=wrap;html=1;" parent="1" vertex="1">
          <mxGeometry x="390" y="580" width="90" height="35" as="geometry" />
        </mxCell>
        <mxCell id="Dr5G_LL7fjHQrt6cBpDd-54" value="JUNIOR" style="shape=ext;double=1;rounded=0;whiteSpace=wrap;html=1;" parent="1" vertex="1">
          <mxGeometry x="500" y="560" width="90" height="35" as="geometry" />
        </mxCell>
        <mxCell id="Dr5G_LL7fjHQrt6cBpDd-55" value="SENIOR" style="shape=ext;double=1;rounded=0;whiteSpace=wrap;html=1;" parent="1" vertex="1">
          <mxGeometry x="630" y="580" width="90" height="35" as="geometry" />
        </mxCell>
        <mxCell id="Dr5G_LL7fjHQrt6cBpDd-56" value="" style="shape=link;html=1;rounded=0;exitX=0.5;exitY=0;exitDx=0;exitDy=0;entryX=0.5;entryY=1;entryDx=0;entryDy=0;" parent="1" source="Dr5G_LL7fjHQrt6cBpDd-52" target="Dr5G_LL7fjHQrt6cBpDd-45" edge="1">
          <mxGeometry width="100" relative="1" as="geometry">
            <mxPoint x="410" y="510" as="sourcePoint" />
            <mxPoint x="510" y="510" as="targetPoint" />
          </mxGeometry>
        </mxCell>
        <mxCell id="Dr5G_LL7fjHQrt6cBpDd-57" value="" style="shape=link;html=1;rounded=0;exitX=0.5;exitY=0;exitDx=0;exitDy=0;entryX=0.5;entryY=1;entryDx=0;entryDy=0;" parent="1" source="Dr5G_LL7fjHQrt6cBpDd-53" target="Dr5G_LL7fjHQrt6cBpDd-45" edge="1">
          <mxGeometry width="100" relative="1" as="geometry">
            <mxPoint x="395" y="590" as="sourcePoint" />
            <mxPoint x="560" y="460" as="targetPoint" />
          </mxGeometry>
        </mxCell>
        <mxCell id="Dr5G_LL7fjHQrt6cBpDd-58" value="" style="shape=link;html=1;rounded=0;exitX=0.5;exitY=0;exitDx=0;exitDy=0;entryX=0.5;entryY=1;entryDx=0;entryDy=0;" parent="1" source="Dr5G_LL7fjHQrt6cBpDd-54" target="Dr5G_LL7fjHQrt6cBpDd-45" edge="1">
          <mxGeometry width="100" relative="1" as="geometry">
            <mxPoint x="500" y="590" as="sourcePoint" />
            <mxPoint x="570" y="460" as="targetPoint" />
          </mxGeometry>
        </mxCell>
        <mxCell id="Dr5G_LL7fjHQrt6cBpDd-59" value="" style="shape=link;html=1;rounded=0;exitX=0.5;exitY=0;exitDx=0;exitDy=0;entryX=0.5;entryY=1;entryDx=0;entryDy=0;" parent="1" source="Dr5G_LL7fjHQrt6cBpDd-55" target="Dr5G_LL7fjHQrt6cBpDd-45" edge="1">
          <mxGeometry width="100" relative="1" as="geometry">
            <mxPoint x="605" y="590" as="sourcePoint" />
            <mxPoint x="575" y="466" as="targetPoint" />
          </mxGeometry>
        </mxCell>
        <mxCell id="Dr5G_LL7fjHQrt6cBpDd-60" value="" style="shape=link;html=1;rounded=0;exitX=1;exitY=0.5;exitDx=0;exitDy=0;entryX=0.5;entryY=1;entryDx=0;entryDy=0;" parent="1" source="Dr5G_LL7fjHQrt6cBpDd-38" target="Dr5G_LL7fjHQrt6cBpDd-55" edge="1">
          <mxGeometry width="100" relative="1" as="geometry">
            <mxPoint x="710" y="630" as="sourcePoint" />
            <mxPoint x="810" y="630" as="targetPoint" />
          </mxGeometry>
        </mxCell>
        <mxCell id="Dr5G_LL7fjHQrt6cBpDd-61" value="&lt;div&gt;major_subject&lt;/div&gt;" style="ellipse;whiteSpace=wrap;html=1;" parent="1" vertex="1">
          <mxGeometry x="345" y="640" width="80" height="30" as="geometry" />
        </mxCell>
        <mxCell id="Dr5G_LL7fjHQrt6cBpDd-62" value="&lt;div&gt;major_subject&lt;/div&gt;" style="ellipse;whiteSpace=wrap;html=1;" parent="1" vertex="1">
          <mxGeometry x="490" y="620" width="80" height="30" as="geometry" />
        </mxCell>
        <mxCell id="Dr5G_LL7fjHQrt6cBpDd-63" value="&lt;div&gt;major_subject&lt;/div&gt;" style="ellipse;whiteSpace=wrap;html=1;" parent="1" vertex="1">
          <mxGeometry x="490" y="690" width="80" height="30" as="geometry" />
        </mxCell>
        <mxCell id="Dr5G_LL7fjHQrt6cBpDd-64" value="" style="endArrow=none;html=1;rounded=0;exitX=0.691;exitY=-0.037;exitDx=0;exitDy=0;exitPerimeter=0;entryX=0.5;entryY=1;entryDx=0;entryDy=0;" parent="1" source="Dr5G_LL7fjHQrt6cBpDd-61" target="Dr5G_LL7fjHQrt6cBpDd-53" edge="1">
          <mxGeometry width="50" height="50" relative="1" as="geometry">
            <mxPoint x="400" y="660" as="sourcePoint" />
            <mxPoint x="450" y="610" as="targetPoint" />
          </mxGeometry>
        </mxCell>
        <mxCell id="Dr5G_LL7fjHQrt6cBpDd-65" value="" style="endArrow=none;html=1;rounded=0;exitX=0.5;exitY=0;exitDx=0;exitDy=0;entryX=0.5;entryY=1;entryDx=0;entryDy=0;" parent="1" source="Dr5G_LL7fjHQrt6cBpDd-62" target="Dr5G_LL7fjHQrt6cBpDd-54" edge="1">
          <mxGeometry width="50" height="50" relative="1" as="geometry">
            <mxPoint x="410" y="649" as="sourcePoint" />
            <mxPoint x="445" y="625" as="targetPoint" />
          </mxGeometry>
        </mxCell>
        <mxCell id="Dr5G_LL7fjHQrt6cBpDd-66" value="" style="endArrow=none;html=1;rounded=0;exitX=1;exitY=0;exitDx=0;exitDy=0;entryX=0.16;entryY=0.976;entryDx=0;entryDy=0;entryPerimeter=0;" parent="1" source="Dr5G_LL7fjHQrt6cBpDd-63" target="Dr5G_LL7fjHQrt6cBpDd-55" edge="1">
          <mxGeometry width="50" height="50" relative="1" as="geometry">
            <mxPoint x="420" y="659" as="sourcePoint" />
            <mxPoint x="455" y="635" as="targetPoint" />
          </mxGeometry>
        </mxCell>
        <mxCell id="Dr5G_LL7fjHQrt6cBpDd-68" value="Exercise 1" style="text;html=1;align=center;verticalAlign=middle;resizable=0;points=[];autosize=1;strokeColor=none;fillColor=none;fontSize=24;" parent="1" vertex="1">
          <mxGeometry x="85" y="123" width="130" height="40" as="geometry" />
        </mxCell>
      </root>
    </mxGraphModel>
  </diagram>
</mxfile>
